<mxfile host="www.draw.io" modified="2019-12-20T02:11:48.339Z" agent="Mozilla/5.0 (Macintosh; Intel Mac OS X 10_15_2) AppleWebKit/537.36 (KHTML, like Gecko) Chrome/79.0.3945.88 Safari/537.36" etag="HukGBbjxxAPLSxr-ivC3" version="12.4.3" type="github" pages="1">
  <diagram id="6a731a19-8d31-9384-78a2-239565b7b9f0" name="Page-1">
    <mxGraphModel dx="946" dy="546" grid="1" gridSize="10" guides="1" tooltips="1" connect="1" arrows="1" fold="1" page="1" pageScale="1" pageWidth="1169" pageHeight="827" background="#ffffff" math="0" shadow="0">
      <root>
        <mxCell id="0"/>
        <mxCell id="1" parent="0"/>
        <mxCell id="Xv_S4PZ5u0gkVG2HwHhl-57" value="" style="edgeStyle=orthogonalEdgeStyle;rounded=0;orthogonalLoop=1;jettySize=auto;html=1;entryX=0.5;entryY=0;entryDx=0;entryDy=0;" parent="1" source="Xv_S4PZ5u0gkVG2HwHhl-55" target="Xv_S4PZ5u0gkVG2HwHhl-58" edge="1">
          <mxGeometry relative="1" as="geometry">
            <mxPoint x="380" y="140" as="targetPoint"/>
          </mxGeometry>
        </mxCell>
        <mxCell id="Xv_S4PZ5u0gkVG2HwHhl-55" value="开始" style="ellipse;whiteSpace=wrap;html=1;" parent="1" vertex="1">
          <mxGeometry x="320" y="20" width="120" height="50" as="geometry"/>
        </mxCell>
        <mxCell id="Xv_S4PZ5u0gkVG2HwHhl-60" value="" style="edgeStyle=orthogonalEdgeStyle;rounded=0;orthogonalLoop=1;jettySize=auto;html=1;" parent="1" source="Xv_S4PZ5u0gkVG2HwHhl-58" target="Xv_S4PZ5u0gkVG2HwHhl-59" edge="1">
          <mxGeometry relative="1" as="geometry"/>
        </mxCell>
        <mxCell id="cntwaHpucUlgjTU7GEwY-4" value="" style="edgeStyle=orthogonalEdgeStyle;rounded=0;orthogonalLoop=1;jettySize=auto;html=1;" edge="1" parent="1" source="Xv_S4PZ5u0gkVG2HwHhl-58" target="cntwaHpucUlgjTU7GEwY-3">
          <mxGeometry relative="1" as="geometry"/>
        </mxCell>
        <mxCell id="Xv_S4PZ5u0gkVG2HwHhl-58" value="用户分享" style="rounded=0;whiteSpace=wrap;html=1;" parent="1" vertex="1">
          <mxGeometry x="320" y="90" width="120" height="60" as="geometry"/>
        </mxCell>
        <mxCell id="cntwaHpucUlgjTU7GEwY-1" value="生成邀请码" style="rounded=0;whiteSpace=wrap;html=1;" vertex="1" parent="1">
          <mxGeometry x="520" y="200" width="120" height="60" as="geometry"/>
        </mxCell>
        <mxCell id="Xv_S4PZ5u0gkVG2HwHhl-62" value="" style="edgeStyle=orthogonalEdgeStyle;rounded=0;orthogonalLoop=1;jettySize=auto;html=1;" parent="1" source="Xv_S4PZ5u0gkVG2HwHhl-59" target="Xv_S4PZ5u0gkVG2HwHhl-76" edge="1">
          <mxGeometry relative="1" as="geometry"/>
        </mxCell>
        <mxCell id="Xv_S4PZ5u0gkVG2HwHhl-59" value="分享用户点击下载" style="rounded=0;whiteSpace=wrap;html=1;" parent="1" vertex="1">
          <mxGeometry x="320" y="170" width="120" height="60" as="geometry"/>
        </mxCell>
        <mxCell id="Xv_S4PZ5u0gkVG2HwHhl-64" value="" style="edgeStyle=orthogonalEdgeStyle;rounded=0;orthogonalLoop=1;jettySize=auto;html=1;" parent="1" source="Xv_S4PZ5u0gkVG2HwHhl-61" target="Xv_S4PZ5u0gkVG2HwHhl-88" edge="1">
          <mxGeometry relative="1" as="geometry">
            <mxPoint x="740" y="720" as="targetPoint"/>
          </mxGeometry>
        </mxCell>
        <mxCell id="Xv_S4PZ5u0gkVG2HwHhl-65" value="异常/过期" style="text;html=1;align=center;verticalAlign=middle;resizable=0;points=[];;labelBackgroundColor=#ffffff;" parent="Xv_S4PZ5u0gkVG2HwHhl-64" vertex="1" connectable="0">
          <mxGeometry x="-0.05" relative="1" as="geometry">
            <mxPoint x="-80.43" y="-45.29" as="offset"/>
          </mxGeometry>
        </mxCell>
        <mxCell id="Xv_S4PZ5u0gkVG2HwHhl-68" value="" style="edgeStyle=orthogonalEdgeStyle;rounded=0;orthogonalLoop=1;jettySize=auto;html=1;" parent="1" source="Xv_S4PZ5u0gkVG2HwHhl-61" target="Xv_S4PZ5u0gkVG2HwHhl-67" edge="1">
          <mxGeometry relative="1" as="geometry"/>
        </mxCell>
        <mxCell id="Xv_S4PZ5u0gkVG2HwHhl-75" value="有参数" style="text;html=1;align=center;verticalAlign=middle;resizable=0;points=[];;labelBackgroundColor=#ffffff;" parent="Xv_S4PZ5u0gkVG2HwHhl-68" vertex="1" connectable="0">
          <mxGeometry x="-0.4917" relative="1" as="geometry">
            <mxPoint as="offset"/>
          </mxGeometry>
        </mxCell>
        <mxCell id="Xv_S4PZ5u0gkVG2HwHhl-61" value="获取参数" style="rhombus;whiteSpace=wrap;html=1;" parent="1" vertex="1">
          <mxGeometry x="300" y="340" width="160" height="80" as="geometry"/>
        </mxCell>
        <mxCell id="Xv_S4PZ5u0gkVG2HwHhl-70" value="" style="edgeStyle=orthogonalEdgeStyle;rounded=0;orthogonalLoop=1;jettySize=auto;html=1;" parent="1" source="Xv_S4PZ5u0gkVG2HwHhl-67" target="Xv_S4PZ5u0gkVG2HwHhl-88" edge="1">
          <mxGeometry relative="1" as="geometry">
            <mxPoint x="740" y="720" as="targetPoint"/>
          </mxGeometry>
        </mxCell>
        <mxCell id="Xv_S4PZ5u0gkVG2HwHhl-71" value="否" style="text;html=1;align=center;verticalAlign=middle;resizable=0;points=[];;labelBackgroundColor=#ffffff;" parent="Xv_S4PZ5u0gkVG2HwHhl-70" vertex="1" connectable="0">
          <mxGeometry x="-0.0963" y="-4" relative="1" as="geometry">
            <mxPoint y="-4" as="offset"/>
          </mxGeometry>
        </mxCell>
        <mxCell id="Xv_S4PZ5u0gkVG2HwHhl-73" value="" style="edgeStyle=orthogonalEdgeStyle;rounded=0;orthogonalLoop=1;jettySize=auto;html=1;" parent="1" source="Xv_S4PZ5u0gkVG2HwHhl-67" target="Xv_S4PZ5u0gkVG2HwHhl-78" edge="1">
          <mxGeometry relative="1" as="geometry">
            <mxPoint x="380" y="657" as="targetPoint"/>
          </mxGeometry>
        </mxCell>
        <mxCell id="Xv_S4PZ5u0gkVG2HwHhl-87" value="是" style="text;html=1;align=center;verticalAlign=middle;resizable=0;points=[];;labelBackgroundColor=#ffffff;" parent="Xv_S4PZ5u0gkVG2HwHhl-73" vertex="1" connectable="0">
          <mxGeometry x="-0.16" y="-2" relative="1" as="geometry">
            <mxPoint as="offset"/>
          </mxGeometry>
        </mxCell>
        <mxCell id="Xv_S4PZ5u0gkVG2HwHhl-67" value="判断参数是否有效" style="rhombus;whiteSpace=wrap;html=1;" parent="1" vertex="1">
          <mxGeometry x="300" y="470" width="160" height="80" as="geometry"/>
        </mxCell>
        <mxCell id="Xv_S4PZ5u0gkVG2HwHhl-77" value="" style="edgeStyle=orthogonalEdgeStyle;rounded=0;orthogonalLoop=1;jettySize=auto;html=1;" parent="1" source="Xv_S4PZ5u0gkVG2HwHhl-76" target="Xv_S4PZ5u0gkVG2HwHhl-61" edge="1">
          <mxGeometry relative="1" as="geometry"/>
        </mxCell>
        <mxCell id="Xv_S4PZ5u0gkVG2HwHhl-114" value="" style="edgeStyle=orthogonalEdgeStyle;rounded=0;orthogonalLoop=1;jettySize=auto;html=1;" parent="1" source="Xv_S4PZ5u0gkVG2HwHhl-76" target="Xv_S4PZ5u0gkVG2HwHhl-113" edge="1">
          <mxGeometry relative="1" as="geometry"/>
        </mxCell>
        <mxCell id="Xv_S4PZ5u0gkVG2HwHhl-76" value="注册" style="rounded=0;whiteSpace=wrap;html=1;" parent="1" vertex="1">
          <mxGeometry x="320" y="250" width="120" height="60" as="geometry"/>
        </mxCell>
        <mxCell id="Xv_S4PZ5u0gkVG2HwHhl-80" value="否" style="edgeStyle=orthogonalEdgeStyle;rounded=0;orthogonalLoop=1;jettySize=auto;html=1;" parent="1" source="Xv_S4PZ5u0gkVG2HwHhl-78" target="Xv_S4PZ5u0gkVG2HwHhl-88" edge="1">
          <mxGeometry relative="1" as="geometry">
            <mxPoint x="740" y="720" as="targetPoint"/>
          </mxGeometry>
        </mxCell>
        <mxCell id="Xv_S4PZ5u0gkVG2HwHhl-82" value="" style="edgeStyle=orthogonalEdgeStyle;rounded=0;orthogonalLoop=1;jettySize=auto;html=1;" parent="1" source="Xv_S4PZ5u0gkVG2HwHhl-78" edge="1">
          <mxGeometry relative="1" as="geometry">
            <mxPoint x="380" y="720" as="targetPoint"/>
          </mxGeometry>
        </mxCell>
        <mxCell id="Xv_S4PZ5u0gkVG2HwHhl-86" value="是" style="text;html=1;align=center;verticalAlign=middle;resizable=0;points=[];;labelBackgroundColor=#ffffff;" parent="Xv_S4PZ5u0gkVG2HwHhl-82" vertex="1" connectable="0">
          <mxGeometry x="-0.05" y="-1" relative="1" as="geometry">
            <mxPoint as="offset"/>
          </mxGeometry>
        </mxCell>
        <mxCell id="Xv_S4PZ5u0gkVG2HwHhl-78" value="是否活动期间" style="rhombus;whiteSpace=wrap;html=1;" parent="1" vertex="1">
          <mxGeometry x="300" y="600" width="160" height="80" as="geometry"/>
        </mxCell>
        <mxCell id="Xv_S4PZ5u0gkVG2HwHhl-85" value="" style="edgeStyle=orthogonalEdgeStyle;rounded=0;orthogonalLoop=1;jettySize=auto;html=1;" parent="1" source="Xv_S4PZ5u0gkVG2HwHhl-83" target="Xv_S4PZ5u0gkVG2HwHhl-88" edge="1">
          <mxGeometry relative="1" as="geometry">
            <mxPoint x="680" y="750" as="targetPoint"/>
          </mxGeometry>
        </mxCell>
        <mxCell id="Xv_S4PZ5u0gkVG2HwHhl-83" value="1、添加绑定关系&lt;br&gt;2、赠送被邀请人优惠" style="rounded=0;whiteSpace=wrap;html=1;align=left;" parent="1" vertex="1">
          <mxGeometry x="320" y="720" width="120" height="60" as="geometry"/>
        </mxCell>
        <mxCell id="Xv_S4PZ5u0gkVG2HwHhl-88" value="结束" style="rounded=1;whiteSpace=wrap;html=1;align=center;" parent="1" vertex="1">
          <mxGeometry x="620" y="720" width="120" height="60" as="geometry"/>
        </mxCell>
        <mxCell id="Xv_S4PZ5u0gkVG2HwHhl-91" value="" style="edgeStyle=orthogonalEdgeStyle;rounded=0;orthogonalLoop=1;jettySize=auto;html=1;" parent="1" source="Xv_S4PZ5u0gkVG2HwHhl-89" target="Xv_S4PZ5u0gkVG2HwHhl-90" edge="1">
          <mxGeometry relative="1" as="geometry"/>
        </mxCell>
        <mxCell id="Xv_S4PZ5u0gkVG2HwHhl-89" value="开始" style="ellipse;whiteSpace=wrap;html=1;align=center;" parent="1" vertex="1">
          <mxGeometry x="990" y="20" width="120" height="50" as="geometry"/>
        </mxCell>
        <mxCell id="Xv_S4PZ5u0gkVG2HwHhl-93" value="" style="edgeStyle=orthogonalEdgeStyle;rounded=0;orthogonalLoop=1;jettySize=auto;html=1;" parent="1" source="Xv_S4PZ5u0gkVG2HwHhl-90" target="Xv_S4PZ5u0gkVG2HwHhl-92" edge="1">
          <mxGeometry relative="1" as="geometry"/>
        </mxCell>
        <mxCell id="Xv_S4PZ5u0gkVG2HwHhl-90" value="购买大师币" style="rounded=0;whiteSpace=wrap;html=1;align=center;" parent="1" vertex="1">
          <mxGeometry x="990" y="120" width="120" height="60" as="geometry"/>
        </mxCell>
        <mxCell id="Xv_S4PZ5u0gkVG2HwHhl-95" value="" style="edgeStyle=orthogonalEdgeStyle;rounded=0;orthogonalLoop=1;jettySize=auto;html=1;" parent="1" source="Xv_S4PZ5u0gkVG2HwHhl-92" target="Xv_S4PZ5u0gkVG2HwHhl-94" edge="1">
          <mxGeometry relative="1" as="geometry"/>
        </mxCell>
        <mxCell id="Xv_S4PZ5u0gkVG2HwHhl-96" value="否" style="text;html=1;align=center;verticalAlign=middle;resizable=0;points=[];;labelBackgroundColor=#ffffff;" parent="Xv_S4PZ5u0gkVG2HwHhl-95" vertex="1" connectable="0">
          <mxGeometry x="-0.0714" relative="1" as="geometry">
            <mxPoint as="offset"/>
          </mxGeometry>
        </mxCell>
        <mxCell id="Xv_S4PZ5u0gkVG2HwHhl-99" value="" style="edgeStyle=orthogonalEdgeStyle;rounded=0;orthogonalLoop=1;jettySize=auto;html=1;" parent="1" source="Xv_S4PZ5u0gkVG2HwHhl-92" target="Xv_S4PZ5u0gkVG2HwHhl-101" edge="1">
          <mxGeometry relative="1" as="geometry">
            <mxPoint x="910" y="270" as="targetPoint"/>
          </mxGeometry>
        </mxCell>
        <mxCell id="Xv_S4PZ5u0gkVG2HwHhl-100" value="是" style="text;html=1;align=center;verticalAlign=middle;resizable=0;points=[];;labelBackgroundColor=#ffffff;" parent="Xv_S4PZ5u0gkVG2HwHhl-99" vertex="1" connectable="0">
          <mxGeometry x="-0.3" y="-4" relative="1" as="geometry">
            <mxPoint as="offset"/>
          </mxGeometry>
        </mxCell>
        <mxCell id="Xv_S4PZ5u0gkVG2HwHhl-92" value="是否被邀请过" style="rhombus;whiteSpace=wrap;html=1;align=center;" parent="1" vertex="1">
          <mxGeometry x="970" y="230" width="160" height="80" as="geometry"/>
        </mxCell>
        <mxCell id="Xv_S4PZ5u0gkVG2HwHhl-94" value="完成" style="rounded=0;whiteSpace=wrap;html=1;align=center;" parent="1" vertex="1">
          <mxGeometry x="990" y="560" width="120" height="60" as="geometry"/>
        </mxCell>
        <mxCell id="Xv_S4PZ5u0gkVG2HwHhl-103" value="" style="edgeStyle=orthogonalEdgeStyle;rounded=0;orthogonalLoop=1;jettySize=auto;html=1;" parent="1" source="Xv_S4PZ5u0gkVG2HwHhl-101" target="Xv_S4PZ5u0gkVG2HwHhl-102" edge="1">
          <mxGeometry relative="1" as="geometry"/>
        </mxCell>
        <mxCell id="Xv_S4PZ5u0gkVG2HwHhl-104" value="是" style="text;html=1;align=center;verticalAlign=middle;resizable=0;points=[];;labelBackgroundColor=#ffffff;" parent="Xv_S4PZ5u0gkVG2HwHhl-103" vertex="1" connectable="0">
          <mxGeometry x="-0.2857" y="-4" relative="1" as="geometry">
            <mxPoint as="offset"/>
          </mxGeometry>
        </mxCell>
        <mxCell id="Xv_S4PZ5u0gkVG2HwHhl-101" value="大师币充值&lt;br&gt;是否大于100" style="rhombus;whiteSpace=wrap;html=1;align=center;" parent="1" vertex="1">
          <mxGeometry x="790" y="230" width="120" height="80" as="geometry"/>
        </mxCell>
        <mxCell id="Xv_S4PZ5u0gkVG2HwHhl-107" value="" style="edgeStyle=orthogonalEdgeStyle;rounded=0;orthogonalLoop=1;jettySize=auto;html=1;" parent="1" source="Xv_S4PZ5u0gkVG2HwHhl-102" target="Xv_S4PZ5u0gkVG2HwHhl-106" edge="1">
          <mxGeometry relative="1" as="geometry"/>
        </mxCell>
        <mxCell id="Xv_S4PZ5u0gkVG2HwHhl-102" value="返点" style="rounded=0;whiteSpace=wrap;html=1;align=center;" parent="1" vertex="1">
          <mxGeometry x="790" y="420" width="120" height="60" as="geometry"/>
        </mxCell>
        <mxCell id="Xv_S4PZ5u0gkVG2HwHhl-108" value="" style="edgeStyle=orthogonalEdgeStyle;rounded=0;orthogonalLoop=1;jettySize=auto;html=1;" parent="1" source="Xv_S4PZ5u0gkVG2HwHhl-106" target="Xv_S4PZ5u0gkVG2HwHhl-94" edge="1">
          <mxGeometry relative="1" as="geometry"/>
        </mxCell>
        <mxCell id="Xv_S4PZ5u0gkVG2HwHhl-106" value="记录返大师币" style="rounded=0;whiteSpace=wrap;html=1;align=center;" parent="1" vertex="1">
          <mxGeometry x="790" y="560" width="120" height="60" as="geometry"/>
        </mxCell>
        <mxCell id="Xv_S4PZ5u0gkVG2HwHhl-113" value="noteLogin&lt;br&gt;wx_bind_login" style="ellipse;shape=cloud;whiteSpace=wrap;html=1;align=center;" parent="1" vertex="1">
          <mxGeometry x="90" y="240" width="150" height="80" as="geometry"/>
        </mxCell>
        <mxCell id="cntwaHpucUlgjTU7GEwY-5" value="" style="edgeStyle=orthogonalEdgeStyle;rounded=0;orthogonalLoop=1;jettySize=auto;html=1;" edge="1" parent="1" source="cntwaHpucUlgjTU7GEwY-3" target="cntwaHpucUlgjTU7GEwY-1">
          <mxGeometry relative="1" as="geometry"/>
        </mxCell>
        <mxCell id="cntwaHpucUlgjTU7GEwY-8" value="否" style="text;html=1;align=center;verticalAlign=middle;resizable=0;points=[];;labelBackgroundColor=#ffffff;" vertex="1" connectable="0" parent="cntwaHpucUlgjTU7GEwY-5">
          <mxGeometry x="-0.2" y="-3" relative="1" as="geometry">
            <mxPoint x="3" y="4" as="offset"/>
          </mxGeometry>
        </mxCell>
        <mxCell id="cntwaHpucUlgjTU7GEwY-3" value="判断是否有邀请码" style="rhombus;whiteSpace=wrap;html=1;" vertex="1" parent="1">
          <mxGeometry x="520" y="80" width="120" height="80" as="geometry"/>
        </mxCell>
      </root>
    </mxGraphModel>
  </diagram>
</mxfile>
